<?xml version="1.0" encoding="UTF-8"?>
<svg id="Layer_1" data-name="Layer 1" xmlns="http://www.w3.org/2000/svg" viewBox="0 0 203.35 74.73">
  <defs>
    <style>
      .cls-1 {
        fill: #fff;
      }
    </style>
  </defs>
  <g>
    <path class="cls-1" d="M43.71,47.65h-5V5.98h4.9l14.75,27.74,1.6,4.14h.13l-.13-4.14V5.98h5V47.65h-5l-14.33-27.29-2.02-4.37,.1,4.32v27.34Z"/>
    <path class="cls-1" d="M96.88,43.07v4.58h-22.5V5.98h22.08v4.19h-16.66v14.14h14.98v4.16h-14.98v14.59h17.08Z"/>
    <path class="cls-1" d="M108.43,47.65h-4.4V5.98h5.47l9.61,27.45,9.61-27.45h5.32V47.65h-5V21.09l.13-3.67h-.13l-1.18,3.67-6.44,18.23h-5.42l-6.52-18.23-1.05-3.67h-.16l.16,3.67v26.56Z"/>
    <path class="cls-1" d="M152.65,48.91c-4.73,0-8.35-1.99-10.84-5.97-2.5-3.98-3.75-9.36-3.75-16.13s1.25-12.1,3.75-16.09c2.5-3.99,6.11-5.98,10.84-5.98s8.34,1.99,10.83,5.98c2.49,3.99,3.73,9.35,3.73,16.09s-1.24,12.15-3.73,16.13c-2.49,3.98-6.1,5.97-10.83,5.97Zm0-4.19c2.6,0,4.78-1.48,6.52-4.44,1.75-2.96,2.62-7.45,2.62-13.47s-.87-10.49-2.62-13.46c-1.75-2.97-3.92-4.45-6.52-4.45s-4.8,1.48-6.55,4.45c-1.75,2.97-2.62,7.46-2.62,13.46s.87,10.52,2.62,13.47c1.75,2.96,3.93,4.44,6.55,4.44Z"/>
    <path class="cls-1" d="M180.51,35.79v-.94c0-1.48,.13-2.72,.38-3.72,.25-1,.73-2.03,1.44-3.09,.71-1.07,1.77-2.35,3.18-3.85l1.65-1.78c.33-.33,.8-.88,1.41-1.65l1.75-2.25c1.52-1.85,2.28-3.46,2.28-4.82,0-1.26-.54-2.37-1.61-3.34-1.07-.97-2.83-1.45-5.25-1.45-1.55,0-3.14,.21-4.77,.64-1.62,.43-3.52,1.24-5.68,2.45V7.16c3.32-1.62,6.78-2.44,10.4-2.44,4.02,0,7.08,.82,9.18,2.46,2.1,1.64,3.16,3.77,3.16,6.39s-1.36,5.24-4.09,8.01l-1.78,1.83-2.09,2.17-1.91,1.96c-.7,.79-1.31,1.69-1.85,2.71-.53,1.02-.8,2.45-.8,4.28v1.23h-5Zm2.75,13.12c-1.05,0-1.95-.38-2.71-1.14-.76-.76-1.14-1.66-1.14-2.71s.38-1.97,1.14-2.72,1.66-1.13,2.71-1.13,1.95,.37,2.71,1.11c.76,.74,1.14,1.66,1.14,2.74s-.38,1.97-1.15,2.72c-.77,.75-1.67,1.13-2.7,1.13Z"/>
  </g>
  <path class="cls-1" d="M17.84,35.75v-1.23c0-1.83-.27-3.26-.8-4.28-.53-1.02-1.15-1.93-1.85-2.71l-1.91-1.96-2.09-2.17-1.78-1.83c-2.72-2.78-4.09-5.45-4.09-8.01s1.05-4.75,3.16-6.39c2.1-1.64,5.16-2.46,9.18-2.46,3.61,0,7.08,.81,10.4,2.44v4.82c-2.16-1.2-4.06-2.02-5.68-2.45-1.62-.43-3.21-.64-4.77-.64-2.43,0-4.18,.48-5.25,1.45-1.07,.97-1.61,2.08-1.61,3.34,0,1.36,.76,2.97,2.28,4.82l1.75,2.25c.61,.77,1.08,1.32,1.41,1.65l1.65,1.78c1.41,1.5,2.47,2.79,3.18,3.85,.71,1.06,1.19,2.09,1.44,3.09,.25,1,.38,2.24,.38,3.72v.94h-5Zm-.45,12c-.77-.75-1.15-1.66-1.15-2.72s.38-2,1.14-2.74c.76-.74,1.66-1.11,2.71-1.11s1.95,.38,2.71,1.13,1.14,1.66,1.14,2.72-.38,1.95-1.14,2.71c-.76,.76-1.66,1.14-2.71,1.14s-1.93-.38-2.7-1.13Z"/>
</svg>